<?xml version="1.0"?><svg width="1024" height="768" xmlns="http://www.w3.org/2000/svg">
 <title>black swirl divider</title>
 <metadata id="metadata15">image/svg+xml</metadata>
 <defs>
  <pattern id="gridpattern" patternUnits="userSpaceOnUse" x="0" y="0" width="100" height="100">
   <image id="svg_1" x="0" y="0" width="100" height="100"/>
  </pattern>
 </defs>
 <g>
  <title>Layer 1</title>
  <g id="svg_9">
   <path fill="#000000" fill-rule="evenodd" stroke-width="5" d="m162.094269,284.230865c19.203094,-6.449219 27.727982,-16.818665 28.892471,-30.611389c1.678101,-20.06604 -29.03067,-29.272629 -44.806885,-21.23172c-9.495499,4.840012 -22.008385,16.875061 -22.699089,31.199036c1.444427,32.95105 21.188164,48.122986 46.245277,53.03833c48.614853,9.536835 129.890106,-54.187103 191.995117,-65.095917c63.877716,-11.219986 89.698517,16.477173 104.269958,37.328583c-30.351624,-22.843781 -66.40033,-28.10791 -95.403534,-23.008087c-66.546448,11.701721 -128.37822,77.022736 -200.869171,67.576263c-36.823776,-6.184082 -66.759224,-38.603821 -57.135254,-76.858704c15.128632,-53.477112 73.801025,-44.770447 82.658585,-16.144516c8.92366,28.839401 -13.390137,45.697403 -33.147476,43.808121z" stroke="black" id="svg_4"/>
   <path fill="#000000" fill-rule="evenodd" stroke-width="5" d="m123.524002,289.375c-73.286404,-58.714996 -114.777962,10.86499 -81.4953,34.622009c-13.881002,-27.365021 6.158398,-45.028015 25.801895,-44.068024c33.071404,1.618011 58.171402,32.690002 70.031403,40.667023l-14.337997,-31.221008l0,0z" stroke="black" id="svg_5"/>
   <g id="svg_8">
    <path fill="#000000" fill-rule="evenodd" stroke-width="1px" d="m860.237,280.784424c70.327515,-58.714828 110.14386,10.864685 78.205017,34.622223c13.320496,-27.364777 -5.90979,-45.028351 -24.760254,-44.067657c-31.735718,1.617096 -55.822998,32.689667 -67.203979,40.666046l13.759216,-31.220612z" id="path3209" stroke="#00007f"/>
    <path fill="#000000" fill-rule="evenodd" stroke-width="5" id="path3207" d="m809.160217,284.226868c-21.29834,-6.449249 -30.753357,-16.818756 -32.044922,-30.611389c-1.861267,-20.06604 32.198242,-29.27272 49.695862,-21.23172c10.531494,4.840027 24.40979,16.875046 25.175781,31.199036c-1.601929,32.950989 -23.500061,48.123016 -51.291077,53.0383c-53.919434,9.536865 -144.062805,-54.187103 -212.944153,-65.095901c-70.847473,-11.220001 -99.485687,16.477188 -115.647125,37.328598c33.663483,-22.843781 73.645477,-28.107971 105.813263,-23.008118c73.807434,11.701752 142.385803,77.022736 222.786316,67.576294c40.841736,-6.184143 74.043579,-38.603882 63.369446,-76.858795c-16.779297,-53.477066 -81.853577,-44.770355 -91.677612,-16.144455c-9.897278,28.839462 14.851196,45.697403 36.764221,43.808151z" stroke="black"/>
   </g>
  </g>
 </g>
</svg>